<svg height='50px' width='50px'  fill="#333333" xmlns="http://www.w3.org/2000/svg" xmlns:xlink="http://www.w3.org/1999/xlink" version="1.1" x="0px" y="0px" viewBox="0 0 96 96" enable-background="new 0 0 96 96" xml:space="preserve"><circle fill="none" stroke="#333333" stroke-width="6" stroke-linecap="round" stroke-linejoin="round" cx="1878" cy="-979" r="24"></circle><polyline fill="none" stroke="#333333" stroke-width="6" stroke-linecap="round" stroke-linejoin="round" points="1866,-958   1878,-931 1890,-958 "></polyline><circle fill="none" stroke="#333333" stroke-width="6" stroke-linecap="round" stroke-linejoin="round" cx="1878" cy="-986" r="3"></circle><path fill="none" stroke="#333333" stroke-width="6" stroke-linecap="round" stroke-linejoin="round" d="M1887-970c0,0,0-9-9-9  s-9,9-9,9"></path><g><path d="M78,25.5H66c-1.657,0-3,1.343-3,3s1.343,3,3,3h12c4.962,0,9,4.037,9,9v33c0,4.963-4.038,9-9,9H18c-4.962,0-9-4.037-9-9v-33   c0-4.963,4.038-9,9-9h12c1.657,0,3-1.343,3-3s-1.343-3-3-3H18c-8.271,0-15,6.729-15,15v33c0,8.271,6.729,15,15,15h60   c8.271,0,15-6.729,15-15v-33C93,32.229,86.271,25.5,78,25.5z"></path><path d="M39,43.5c1.657,0,3-1.343,3-3v-3h12v3c0,1.657,1.343,3,3,3s3-1.343,3-3v-24c0-1.654,1.346-3,3-3c1.657,0,3-1.343,3-3   s-1.343-3-3-3c-4.962,0-9,4.037-9,9v3H42v-3c0-1.654,1.346-3,3-3c1.657,0,3-1.343,3-3s-1.343-3-3-3c-4.962,0-9,4.037-9,9v24   C36,42.157,37.343,43.5,39,43.5z M54,25.5v6H42v-6H54z"></path><path d="M78,46.5c-4.243,0-6.484,2.242-8.121,3.879C68.408,51.85,67.687,52.5,66,52.5c-1.686,0-2.407-0.65-3.878-2.121   C60.484,48.742,58.243,46.5,54,46.5s-6.484,2.242-8.121,3.879C44.408,51.85,43.687,52.5,42,52.5s-2.408-0.65-3.879-2.121   C36.484,48.742,34.243,46.5,30,46.5s-6.484,2.242-8.121,3.879C20.408,51.85,19.687,52.5,18,52.5c-1.657,0-3,1.343-3,3s1.343,3,3,3   c4.243,0,6.484-2.242,8.121-3.879C27.592,53.15,28.313,52.5,30,52.5s2.408,0.65,3.879,2.121C35.516,56.258,37.757,58.5,42,58.5   s6.484-2.242,8.121-3.879C51.592,53.15,52.313,52.5,54,52.5s2.408,0.65,3.879,2.121C59.516,56.258,61.758,58.5,66,58.5   c4.243,0,6.485-2.242,8.122-3.879C75.593,53.15,76.314,52.5,78,52.5c1.657,0,3-1.343,3-3S79.657,46.5,78,46.5z"></path><path d="M78,61.5c-4.243,0-6.484,2.242-8.121,3.879C68.408,66.85,67.687,67.5,66,67.5c-1.686,0-2.407-0.65-3.878-2.121   C60.484,63.742,58.243,61.5,54,61.5s-6.484,2.242-8.121,3.879C44.408,66.85,43.687,67.5,42,67.5s-2.408-0.65-3.879-2.121   C36.484,63.742,34.243,61.5,30,61.5s-6.484,2.242-8.121,3.879C20.408,66.85,19.687,67.5,18,67.5c-1.657,0-3,1.343-3,3s1.343,3,3,3   c4.243,0,6.484-2.242,8.121-3.879C27.592,68.15,28.313,67.5,30,67.5s2.408,0.65,3.879,2.121C35.516,71.258,37.757,73.5,42,73.5   s6.484-2.242,8.121-3.879C51.592,68.15,52.313,67.5,54,67.5s2.408,0.65,3.879,2.121C59.516,71.258,61.758,73.5,66,73.5   c4.243,0,6.485-2.242,8.122-3.879C75.593,68.15,76.314,67.5,78,67.5c1.657,0,3-1.343,3-3S79.657,61.5,78,61.5z"></path></g></svg>
